{"accessors" : [{"bufferView" : 0, "byteOffset" : 0, "componentType" : 5123, "count" : 54342, "type" : "SCALAR", "max" : [47359], "min" : [0]}, {"bufferView" : 1, "byteOffset" : 0, "componentType" : 5126, "count" : 47360, "type" : "VEC3", "max" : [-81.65480041503906, 110.35859680175781, 174.00039672851562], "min" : [-104.95870208740234, 0.9843000173568726, 59.69200134277344], "name" : "POSITION"}, {"bufferView" : 1, "byteOffset" : 12, "componentType" : 5126, "count" : 47360, "type" : "VEC2", "max" : [0.9785000085830688, -0.0005000000237487257], "min" : [0.0005000000237487257, -0.9994999766349792], "name" : "TEXCOORD_0"}], "asset" : {"generator" : "Aspose.3D 22.6", "version" : "2.0"}, "buffers" : [{"uri" : "data:application/octet-stream;base64,", "byteLength" : 1195532}], "bufferViews" : [{"buffer" : 0, "byteOffset" : 0, "byteLength" : 108684, "target" : 34963}, {"buffer" : 0, "byteOffset" : 108688, "byteLength" : 1086840, "byteStride" : 20, "target" : 34962}], "meshes" : [{"primitives" : [{"attributes" : {"POSITION" : 1, "TEXCOORD_0" : 2}, "indices" : 0, "mode" : 4}], "name" : ""}], "nodes" : [{"mesh" : 0, "name" : "almirah"}], "scene" : 0, "scenes" : [{"nodes" : [0]}]}