{"accessors" : [{"bufferView" : 0, "byteOffset" : 0, "componentType" : 5123, "count" : 16176, "type" : "SCALAR", "max" : [13142], "min" : [0]}, {"bufferView" : 1, "byteOffset" : 0, "componentType" : 5126, "count" : 13143, "type" : "VEC3", "max" : [-87.37760162353516, 115.94180297851562, 53.7671012878418], "min" : [-163.99180603027344, 0, 27.828500747680664], "name" : "POSITION"}, {"bufferView" : 1, "byteOffset" : 12, "componentType" : 5126, "count" : 13143, "type" : "VEC2", "max" : [0.9994999766349792, -0.0005000000237487257], "min" : [0.0005000000237487257, -0.9994000196456909], "name" : "TEXCOORD_0"}], "asset" : {"generator" : "Aspose.3D 22.6", "version" : "2.0"}, "buffers" : [{"uri" : "data:application/octet-stream;base64,", "byteLength" : 355880}], "bufferViews" : [{"buffer" : 0, "byteOffset" : 0, "byteLength" : 32352, "target" : 34963}, {"buffer" : 0, "byteOffset" : 32356, "byteLength" : 323520, "byteStride" : 20, "target" : 34962}], "meshes" : [{"primitives" : [{"attributes" : {"POSITION" : 1, "TEXCOORD_0" : 2}, "indices" : 0, "mode" : 4}], "name" : ""}], "nodes" : [{"mesh" : 0, "name" : "c_toilet"}], "scene" : 0, "scenes" : [{"nodes" : [0]}]}