{"accessors" : [{"bufferView" : 0, "byteOffset" : 0, "componentType" : 5123, "count" : 69336, "type" : "SCALAR", "max" : [56913], "min" : [0]}, {"bufferView" : 1, "byteOffset" : 0, "componentType" : 5126, "count" : 56914, "type" : "VEC3", "max" : [119.31739807128906, 123.7655029296875, 256.4353942871094], "min" : [61.263099670410156, 1.1842000484466553, -202.0175018310547], "name" : "POSITION"}, {"bufferView" : 1, "byteOffset" : 12, "componentType" : 5126, "count" : 56914, "type" : "VEC2", "max" : [0.9994999766349792, -0.0005000000237487257], "min" : [0.0005000000237487257, -0.9940000176429749], "name" : "TEXCOORD_0"}], "asset" : {"generator" : "Aspose.3D 22.6", "version" : "2.0"}, "buffers" : [{"uri" : "data:application/octet-stream;base64,", "byteLength" : 1525400}], "bufferViews" : [{"buffer" : 0, "byteOffset" : 0, "byteLength" : 138672, "target" : 34963}, {"buffer" : 0, "byteOffset" : 138676, "byteLength" : 1386720, "byteStride" : 20, "target" : 34962}], "meshes" : [{"primitives" : [{"attributes" : {"POSITION" : 1, "TEXCOORD_0" : 2}, "indices" : 0, "mode" : 4}], "name" : ""}], "nodes" : [{"mesh" : 0, "name" : "curtain"}], "scene" : 0, "scenes" : [{"nodes" : [0]}]}