{"accessors" : [{"bufferView" : 0, "byteOffset" : 0, "componentType" : 5125, "count" : 84921, "type" : "SCALAR", "max" : [69662], "min" : [0]}, {"bufferView" : 1, "byteOffset" : 0, "componentType" : 5126, "count" : 69663, "type" : "VEC3", "max" : [-82.9988021850586, 90.87750244140625, -9.315099716186523], "min" : [-163.8249053955078, 0.9842000007629395, -132.34820556640625], "name" : "POSITION"}, {"bufferView" : 1, "byteOffset" : 12, "componentType" : 5126, "count" : 69663, "type" : "VEC2", "max" : [0.9994999766349792, -0.0005000000237487257], "min" : [0.0005000000237487257, -0.9994000196456909], "name" : "TEXCOORD_0"}], "asset" : {"generator" : "Aspose.3D 22.6", "version" : "2.0"}, "buffers" : [{"uri" : "data:application/octet-stream;base64,", "byteLength" : 2038112}], "bufferViews" : [{"buffer" : 0, "byteOffset" : 0, "byteLength" : 339684, "target" : 34963}, {"buffer" : 0, "byteOffset" : 339688, "byteLength" : 1698420, "byteStride" : 20, "target" : 34962}], "meshes" : [{"primitives" : [{"attributes" : {"POSITION" : 1, "TEXCOORD_0" : 2}, "indices" : 0, "mode" : 4}], "name" : ""}], "nodes" : [{"mesh" : 0, "name" : "dining"}], "scene" : 0, "scenes" : [{"nodes" : [0]}]}