{"accessors" : [{"bufferView" : 0, "byteOffset" : 0, "componentType" : 5123, "count" : 14022, "type" : "SCALAR", "max" : [12281], "min" : [0]}, {"bufferView" : 1, "byteOffset" : 0, "componentType" : 5126, "count" : 12282, "type" : "VEC3", "max" : [124.0792007446289, 110.37010192871094, 239.57179260253906], "min" : [-164.0847930908203, -0.0027000000700354576, -212.3769989013672], "name" : "POSITION"}, {"bufferView" : 1, "byteOffset" : 12, "componentType" : 5126, "count" : 12282, "type" : "VEC2", "max" : [0.9994999766349792, -0.0005000000237487257], "min" : [0.0005000000237487257, -0.9993000030517578], "name" : "TEXCOORD_0"}], "asset" : {"generator" : "Aspose.3D 22.6", "version" : "2.0"}, "buffers" : [{"uri" : "data:application/octet-stream;base64,", "byteLength" : 308492}], "bufferViews" : [{"buffer" : 0, "byteOffset" : 0, "byteLength" : 28044, "target" : 34963}, {"buffer" : 0, "byteOffset" : 28048, "byteLength" : 280440, "byteStride" : 20, "target" : 34962}], "meshes" : [{"primitives" : [{"attributes" : {"POSITION" : 1, "TEXCOORD_0" : 2}, "indices" : 0, "mode" : 4}], "name" : ""}], "nodes" : [{"mesh" : 0, "name" : "doorWindow"}], "scene" : 0, "scenes" : [{"nodes" : [0]}]}