{"accessors" : [{"bufferView" : 0, "byteOffset" : 0, "componentType" : 5123, "count" : 372, "type" : "SCALAR", "max" : [311], "min" : [0]}, {"bufferView" : 1, "byteOffset" : 0, "componentType" : 5126, "count" : 312, "type" : "VEC3", "max" : [147.03179931640625, 0.9843000173568726, 257.7041931152344], "min" : [-163.9918975830078, 0, -214.33349609375], "name" : "POSITION"}, {"bufferView" : 1, "byteOffset" : 12, "componentType" : 5126, "count" : 312, "type" : "VEC2", "max" : [0.9994999766349792, -0.0005000000237487257], "min" : [0.0005000000237487257, -0.9864000082015991], "name" : "TEXCOORD_0"}], "asset" : {"generator" : "Aspose.3D 22.6", "version" : "2.0"}, "buffers" : [{"uri" : "data:application/octet-stream;base64,", "byteLength" : 8192}], "bufferViews" : [{"buffer" : 0, "byteOffset" : 0, "byteLength" : 744, "target" : 34963}, {"buffer" : 0, "byteOffset" : 748, "byteLength" : 7440, "byteStride" : 20, "target" : 34962}], "meshes" : [{"primitives" : [{"attributes" : {"POSITION" : 1, "TEXCOORD_0" : 2}, "indices" : 0, "mode" : 4}], "name" : ""}], "nodes" : [{"mesh" : 0, "name" : "floor"}], "scene" : 0, "scenes" : [{"nodes" : [0]}]}