{"accessors" : [{"bufferView" : 0, "byteOffset" : 0, "componentType" : 5123, "count" : 912, "type" : "SCALAR", "max" : [734], "min" : [0]}, {"bufferView" : 1, "byteOffset" : 0, "componentType" : 5126, "count" : 735, "type" : "VEC3", "max" : [151.1656036376953, 109.0248031616211, 261.7640075683594], "min" : [-161.99180603027344, 3.5099000930786133, -210.60299682617188], "name" : "POSITION"}, {"bufferView" : 1, "byteOffset" : 12, "componentType" : 5126, "count" : 735, "type" : "VEC2", "max" : [672.2567749023438, 350.9013977050781], "min" : [-43.378700256347656, -117.40570068359375], "name" : "TEXCOORD_0"}], "asset" : {"generator" : "Aspose.3D 22.6", "version" : "2.0"}, "buffers" : [{"uri" : "data:application/octet-stream;base64,", "byteLength" : 20072}], "bufferViews" : [{"buffer" : 0, "byteOffset" : 0, "byteLength" : 1824, "target" : 34963}, {"buffer" : 0, "byteOffset" : 1828, "byteLength" : 18240, "byteStride" : 20, "target" : 34962}], "meshes" : [{"primitives" : [{"attributes" : {"POSITION" : 1, "TEXCOORD_0" : 2}, "indices" : 0, "mode" : 4}], "name" : ""}], "nodes" : [{"mesh" : 0, "name" : "glass"}], "scene" : 0, "scenes" : [{"nodes" : [0]}]}