{"accessors" : [{"bufferView" : 0, "byteOffset" : 0, "componentType" : 5125, "count" : 105693, "type" : "SCALAR", "max" : [87155], "min" : [0]}, {"bufferView" : 1, "byteOffset" : 0, "componentType" : 5126, "count" : 87156, "type" : "VEC3", "max" : [104.35230255126953, 110.87539672851562, 9.278900146484375], "min" : [-41.94449996948242, 1.1282000541687012, -82.7958984375], "name" : "POSITION"}, {"bufferView" : 1, "byteOffset" : 12, "componentType" : 5126, "count" : 87156, "type" : "VEC2", "max" : [0.9994999766349792, -0.0005000000237487257], "min" : [0.0005000000237487257, -0.9975000023841858], "name" : "TEXCOORD_0"}], "asset" : {"generator" : "Aspose.3D 22.6", "version" : "2.0"}, "buffers" : [{"uri" : "data:application/octet-stream;base64,", "byteLength" : 2536640}], "bufferViews" : [{"buffer" : 0, "byteOffset" : 0, "byteLength" : 422772, "target" : 34963}, {"buffer" : 0, "byteOffset" : 422776, "byteLength" : 2113860, "byteStride" : 20, "target" : 34962}], "meshes" : [{"primitives" : [{"attributes" : {"POSITION" : 1, "TEXCOORD_0" : 2}, "indices" : 0, "mode" : 4}], "name" : ""}], "nodes" : [{"mesh" : 0, "name" : "kitchen"}], "scene" : 0, "scenes" : [{"nodes" : [0]}]}