{"accessors" : [{"bufferView" : 0, "byteOffset" : 0, "componentType" : 5123, "count" : 58587, "type" : "SCALAR", "max" : [51491], "min" : [0]}, {"bufferView" : 1, "byteOffset" : 0, "componentType" : 5126, "count" : 51492, "type" : "VEC3", "max" : [64.99040222167969, 75.0824966430664, -90.71279907226562], "min" : [-50.75199890136719, 0.9843000173568726, -204.22720336914062], "name" : "POSITION"}, {"bufferView" : 1, "byteOffset" : 12, "componentType" : 5126, "count" : 51492, "type" : "VEC2", "max" : [0.9994999766349792, -0.0005000000237487257], "min" : [0.0005000000237487257, -0.9966999888420105], "name" : "TEXCOORD_0"}], "asset" : {"generator" : "Aspose.3D 22.6", "version" : "2.0"}, "buffers" : [{"uri" : "data:application/octet-stream;base64,", "byteLength" : 1288924}], "bufferViews" : [{"buffer" : 0, "byteOffset" : 0, "byteLength" : 117176, "target" : 34963}, {"buffer" : 0, "byteOffset" : 117180, "byteLength" : 1171740, "byteStride" : 20, "target" : 34962}], "meshes" : [{"primitives" : [{"attributes" : {"POSITION" : 1, "TEXCOORD_0" : 2}, "indices" : 0, "mode" : 4}], "name" : ""}], "nodes" : [{"mesh" : 0, "name" : "living"}], "scene" : 0, "scenes" : [{"nodes" : [0]}]}