{"accessors" : [{"bufferView" : 0, "byteOffset" : 0, "componentType" : 5125, "count" : 130167, "type" : "SCALAR", "max" : [111418], "min" : [0]}, {"bufferView" : 1, "byteOffset" : 0, "componentType" : 5126, "count" : 111419, "type" : "VEC3", "max" : [113.46330261230469, 75.0824966430664, 254.05580139160156], "min" : [-2.1793999671936035, 0.9180999994277954, 138.35350036621094], "name" : "POSITION"}, {"bufferView" : 1, "byteOffset" : 12, "componentType" : 5126, "count" : 111419, "type" : "VEC2", "max" : [0.9994000196456909, -0.0005000000237487257], "min" : [0.0005000000237487257, -0.9994999766349792], "name" : "TEXCOORD_0"}], "asset" : {"generator" : "Aspose.3D 22.6", "version" : "2.0"}, "buffers" : [{"uri" : "data:application/octet-stream;base64,", "byteLength" : 3124016}], "bufferViews" : [{"buffer" : 0, "byteOffset" : 0, "byteLength" : 520668, "target" : 34963}, {"buffer" : 0, "byteOffset" : 520672, "byteLength" : 2603340, "byteStride" : 20, "target" : 34962}], "meshes" : [{"primitives" : [{"attributes" : {"POSITION" : 1, "TEXCOORD_0" : 2}, "indices" : 0, "mode" : 4}], "name" : ""}], "nodes" : [{"mesh" : 0, "name" : "M_bedroom_extra"}], "scene" : 0, "scenes" : [{"nodes" : [0]}]}