{"accessors" : [{"bufferView" : 0, "byteOffset" : 0, "componentType" : 5123, "count" : 17988, "type" : "SCALAR", "max" : [14694], "min" : [0]}, {"bufferView" : 1, "byteOffset" : 0, "componentType" : 5126, "count" : 14695, "type" : "VEC3", "max" : [77.8656997680664, 51.641700744628906, 256.93011474609375], "min" : [-35.27519989013672, 0.03929999843239784, 170.5238037109375], "name" : "POSITION"}, {"bufferView" : 1, "byteOffset" : 12, "componentType" : 5126, "count" : 14695, "type" : "VEC2", "max" : [0.9994999766349792, -0.0005000000237487257], "min" : [0.0005000000237487257, -0.9872999787330627], "name" : "TEXCOORD_0"}], "asset" : {"generator" : "Aspose.3D 22.6", "version" : "2.0"}, "buffers" : [{"uri" : "data:application/octet-stream;base64,", "byteLength" : 395744}], "bufferViews" : [{"buffer" : 0, "byteOffset" : 0, "byteLength" : 35976, "target" : 34963}, {"buffer" : 0, "byteOffset" : 35980, "byteLength" : 359760, "byteStride" : 20, "target" : 34962}], "meshes" : [{"primitives" : [{"attributes" : {"POSITION" : 1, "TEXCOORD_0" : 2}, "indices" : 0, "mode" : 4}], "name" : ""}], "nodes" : [{"mesh" : 0, "name" : "M_Bedroom"}], "scene" : 0, "scenes" : [{"nodes" : [0]}]}