{"accessors" : [{"bufferView" : 0, "byteOffset" : 0, "componentType" : 5123, "count" : 45138, "type" : "SCALAR", "max" : [39810], "min" : [0]}, {"bufferView" : 1, "byteOffset" : 0, "componentType" : 5126, "count" : 39811, "type" : "VEC3", "max" : [-55.74850082397461, 110.26899719238281, 257.510009765625], "min" : [-110.868896484375, -0.38580000400543213, 177.956298828125], "name" : "POSITION"}, {"bufferView" : 1, "byteOffset" : 12, "componentType" : 5126, "count" : 39811, "type" : "VEC2", "max" : [0.9994000196456909, -0.0005000000237487257], "min" : [0.0005000000237487257, -0.9994999766349792], "name" : "TEXCOORD_0"}], "asset" : {"generator" : "Aspose.3D 22.6", "version" : "2.0"}, "buffers" : [{"uri" : "data:application/octet-stream;base64,", "byteLength" : 993044}], "bufferViews" : [{"buffer" : 0, "byteOffset" : 0, "byteLength" : 90276, "target" : 34963}, {"buffer" : 0, "byteOffset" : 90280, "byteLength" : 902760, "byteStride" : 20, "target" : 34962}], "meshes" : [{"primitives" : [{"attributes" : {"POSITION" : 1, "TEXCOORD_0" : 2}, "indices" : 0, "mode" : 4}], "name" : ""}], "nodes" : [{"mesh" : 0, "name" : "M_Toilet"}], "scene" : 0, "scenes" : [{"nodes" : [0]}]}