{"accessors" : [{"bufferView" : 0, "byteOffset" : 0, "componentType" : 5123, "count" : 132, "type" : "SCALAR", "max" : [110], "min" : [0]}, {"bufferView" : 1, "byteOffset" : 0, "componentType" : 5126, "count" : 111, "type" : "VEC3", "max" : [154.9058074951172, 127, 265.5780944824219], "min" : [-169.8972930908203, 126, -214.3430938720703], "name" : "POSITION"}], "asset" : {"generator" : "Aspose.3D 22.6", "version" : "2.0"}, "buffers" : [{"uri" : "data:application/octet-stream;base64,", "byteLength" : 1856}], "bufferViews" : [{"buffer" : 0, "byteOffset" : 0, "byteLength" : 264, "target" : 34963}, {"buffer" : 0, "byteOffset" : 268, "byteLength" : 1584, "byteStride" : 12, "target" : 34962}], "meshes" : [{"primitives" : [{"attributes" : {"POSITION" : 1}, "indices" : 0, "mode" : 4}], "name" : ""}], "nodes" : [{"mesh" : 0, "name" : "Line001"}], "scene" : 0, "scenes" : [{"nodes" : [0]}]}