{"accessors" : [{"bufferView" : 0, "byteOffset" : 0, "componentType" : 5123, "count" : 10392, "type" : "SCALAR", "max" : [8554], "min" : [0]}, {"bufferView" : 1, "byteOffset" : 0, "componentType" : 5126, "count" : 8555, "type" : "VEC3", "max" : [154.9058074951172, 126, 265.5780944824219], "min" : [-169.8972930908203, 0, -214.3430938720703], "name" : "POSITION"}, {"bufferView" : 1, "byteOffset" : 12, "componentType" : 5126, "count" : 8555, "type" : "VEC2", "max" : [0.9994999766349792, -0.0005000000237487257], "min" : [0.0005000000237487257, -0.9994999766349792], "name" : "TEXCOORD_0"}], "asset" : {"generator" : "Aspose.3D 22.6", "version" : "2.0"}, "buffers" : [{"uri" : "data:application/octet-stream;base64,", "byteLength" : 228632}], "bufferViews" : [{"buffer" : 0, "byteOffset" : 0, "byteLength" : 20784, "target" : 34963}, {"buffer" : 0, "byteOffset" : 20788, "byteLength" : 207840, "byteStride" : 20, "target" : 34962}], "meshes" : [{"primitives" : [{"attributes" : {"POSITION" : 1, "TEXCOORD_0" : 2}, "indices" : 0, "mode" : 4}], "name" : ""}], "nodes" : [{"mesh" : 0, "name" : "wall"}], "scene" : 0, "scenes" : [{"nodes" : [0]}]}